<?xml version="1.0" standalone="no"?>
<!DOCTYPE svg PUBLIC "-//W3C//DTD SVG 20010904//EN"
 "http://www.w3.org/TR/2001/REC-SVG-20010904/DTD/svg10.dtd">
<svg version="1.0" xmlns="http://www.w3.org/2000/svg"
 width="485.000000pt" height="200.000000pt" viewBox="0 0 485.000000 200.000000"
 preserveAspectRatio="xMidYMid meet">

<g transform="translate(0.000000,200.000000) scale(0.100000,-0.100000)"
fill="#000000" stroke="none">
<path d="M4007 1983 c-5 -9 -171 -528 -233 -728 -20 -66 -65 -218 -99 -338
-35 -120 -65 -220 -68 -223 -8 -8 -314 -74 -343 -74 -16 0 -24 6 -24 18 0 9
25 107 55 217 31 110 92 342 136 515 68 264 82 332 86 420 5 98 4 107 -18 134
-21 26 -26 28 -71 23 -67 -8 -151 -55 -265 -150 -358 -296 -757 -812 -805
-1038 -10 -48 -9 -59 9 -100 46 -103 184 -105 399 -4 100 46 137 78 52 44
-170 -69 -303 -91 -361 -60 -87 46 -46 191 122 439 126 185 242 324 420 503
227 227 367 335 424 327 39 -6 44 -87 16 -238 -18 -92 -179 -711 -193 -739 -7
-14 -37 -96 -66 -181 -29 -85 -56 -158 -59 -162 -4 -4 -54 -21 -111 -38 -115
-34 -220 -78 -220 -91 0 -14 16 -11 139 31 121 41 171 49 171 28 0 -7 -16 -69
-35 -138 -44 -152 -85 -325 -85 -351 0 -28 28 -35 50 -13 16 17 98 259 159
470 12 40 27 77 34 83 14 11 320 81 357 81 16 0 20 -5 16 -17 -16 -51 -156
-600 -156 -610 0 -17 39 -17 45 -1 2 7 41 152 86 322 66 245 87 311 104 321
23 14 521 94 785 125 193 23 208 26 194 40 -16 16 -721 -74 -899 -116 -77 -18
-75 -18 -75 7 0 30 129 462 316 1057 60 191 63 212 35 212 -11 0 -22 -3 -24
-7z"/>
<path d="M4703 1528 c-6 -7 -20 -45 -32 -85 l-21 -72 -55 -11 c-76 -16 -85
-35 -11 -26 31 4 56 5 56 2 0 -4 -16 -76 -35 -160 -40 -175 -41 -193 -19 -225
15 -20 23 -23 65 -19 32 3 60 14 83 32 36 27 96 106 96 125 0 22 -18 10 -45
-30 -16 -22 -41 -49 -55 -59 -78 -55 -116 -41 -104 39 11 82 66 306 77 312 5
4 36 12 68 18 33 7 59 16 59 22 0 9 -31 7 -97 -7 -27 -5 -28 0 -12 80 12 59 3
91 -18 64z"/>
<path d="M1225 1346 c-151 -49 -402 -198 -595 -353 -118 -95 -288 -260 -383
-373 -284 -337 -305 -524 -62 -547 107 -10 367 34 555 92 111 35 360 138 360
149 0 16 -66 -2 -185 -51 -302 -125 -672 -191 -777 -140 -72 36 -74 101 -9
232 116 231 455 574 781 788 111 72 298 168 365 186 96 26 156 7 171 -54 8
-33 -11 -137 -41 -227 -30 -89 -30 -90 -2 -86 29 4 60 67 88 177 28 110 22
165 -20 203 -28 25 -38 28 -104 28 -47 -1 -97 -9 -142 -24z"/>
<path d="M4486 1103 c-30 -13 -40 -13 -46 -3 -15 25 -38 1 -59 -61 -23 -68
-54 -109 -83 -109 -14 0 -18 8 -18 40 0 57 -22 52 -85 -17 -29 -32 -56 -55
-60 -51 -10 9 23 74 56 110 24 25 35 29 59 24 25 -5 30 -2 30 15 0 41 -57 37
-110 -7 -17 -15 -48 -52 -68 -83 -20 -30 -52 -66 -71 -78 -40 -27 -106 -31
-115 -7 -10 27 -7 32 31 39 49 9 70 20 88 49 21 32 10 56 -27 56 -44 0 -98
-29 -119 -64 -25 -42 -25 -102 0 -116 35 -18 103 -11 150 15 33 19 47 23 57
14 20 -16 71 -1 110 33 28 25 35 27 40 14 5 -12 19 -15 65 -14 l60 2 31 58
c32 61 83 118 104 118 6 0 14 -10 17 -22 5 -18 8 -19 22 -8 20 16 16 64 -5 67
-8 1 -32 -5 -54 -14z m-486 -128 c0 -19 -37 -38 -58 -30 -15 6 -14 9 7 26 28
23 51 25 51 4z"/>
<path d="M1253 938 c-18 -23 -165 -560 -156 -569 13 -13 26 1 61 61 34 60 98
140 113 140 5 0 9 -22 9 -49 0 -27 3 -56 6 -65 8 -21 53 -21 82 0 20 13 22 13
22 0 0 -44 75 -39 125 8 30 29 34 30 44 14 8 -13 23 -17 66 -16 l56 2 35 60
c43 76 52 88 87 111 28 18 28 18 34 -4 8 -31 27 -20 31 17 3 27 0 32 -18 32
-11 0 -36 -6 -54 -14 -24 -10 -37 -11 -44 -4 -19 19 -37 1 -56 -56 -21 -68
-65 -122 -90 -113 -13 5 -17 16 -14 39 5 55 -25 48 -87 -19 -60 -64 -75 -54
-30 22 31 53 63 75 99 68 31 -6 33 12 4 30 -33 22 -116 -28 -154 -93 -17 -27
-62 -60 -83 -60 -7 0 -11 22 -11 54 0 49 -16 86 -36 86 -12 0 -51 -25 -76 -48
-15 -14 -30 -23 -32 -21 -3 3 4 34 15 69 38 121 79 280 79 305 0 27 -12 32
-27 13z"/>
<path d="M2160 698 c-87 -66 -80 -63 -80 -34 0 15 -6 26 -13 26 -16 0 -85 -48
-106 -73 -23 -28 -31 -19 -24 28 5 37 3 45 -10 45 -12 0 -24 -24 -42 -83 -43
-141 -33 -149 69 -49 53 52 67 61 61 42 -18 -65 -18 -70 1 -70 11 0 49 32 86
72 l67 73 1 -57 c0 -52 2 -58 21 -58 29 0 58 17 102 58 33 32 48 62 31 62 -4
0 -27 -18 -51 -41 -54 -49 -70 -43 -53 21 11 42 8 70 -8 70 -5 0 -28 -15 -52
-32z"/>
<path d="M2420 30 c0 -5 5 -10 10 -10 6 0 10 5 10 10 0 6 -4 10 -10 10 -5 0
-10 -4 -10 -10z"/>
</g>
</svg>
